<?xml version="1.0" standalone="no"?>
<svg viewBox="-350 -150 1500 1500" style="width: 390px; height: 390px; justify-content: center; align-self: center; transform: scale(1, 1);" xmlns="http://www.w3.org/2000/svg" width="390" height="390"><defs><linearGradient id="wrapperGradient_y6w37t8r7" x1="0%" y1="0%" x2="50%" y2="100%" gradientTransform="rotate(4)"><stop offset="0%" stop-color="#f3d0f3"></stop><stop offset="100%" stop-color="#f6f0d6"></stop></linearGradient></defs><rect x="-350" y="-150" width="100%" height="100%" fill="url(#wrapperGradient_y6w37t8r7)" rx="30"></rect><g transform="rotate(1 441.5556526184082 628.8814926147461)"><g id="body_Tee_Arms_Crossed" data-name="body/Tee Arms Crossed" transform="translate(0 459)"><path id="_Skin" data-name="âœ‹ Skin" d="M569.933,257.977c-8.684-3.1-17.054-6.672-24.68-11.932-21.983-16.363-36.317-40.988-49.861-64.319-19.078-33.933-32.669-70.091-42.064-107.811-4.037-16.206-5.408-35-14.58-49.364C417.956-5.534,356.987-1.636,324.612,3.645c-21.68,3.836-26.161,28.1-31.085,46.051a377.75,377.75,0,0,0-9.037,45.291,113.193,113.193,0,0,1-17.179,8.879c-62.859,19.275-73.907,55.009-97.916,110.207C128.844,294.3,18.809,325.715,2.188,420.664c-10.709,62.685,19.744,121.658,51.141,173.77,29.24,56.921,70.061,84.241,135.07,70.793,60.975-13.678,119.575-36.559,179.477-54.24,29.013-7.133,57.98-25.687,88.5-19.218A776.453,776.453,0,0,0,648.317,610.7c90.484,3.659,90.47-83.186,81.183-150.439C722.995,355.6,670.2,288.395,569.933,257.977Z" transform="translate(90 -40)" fill="#d08b5b"></path><path id="_Ink" data-name="ðŸ– Ink" d="M390.8,735.762c-56.219,0-108.588-1.712-155.652-5.084-52.911-3.791-97.937-9.626-133.828-17.342a16.484,16.484,0,0,1-12.588,5.629,15.975,15.975,0,0,1-7.322-1.729,13.952,13.952,0,0,1-5.663-5.354,23.37,23.37,0,0,1-2.711-8.8,92.522,92.522,0,0,1-.629-9.754v-.013c-.04-1.394-.077-2.711-.143-3.95-.232-4.365-1.053-24.293-1.924-45.39l0-.06c-.905-21.949-1.841-44.645-2.278-53.892-.139-2.949-.293-6.057-.416-8.555-.737-14.949-1.5-30.406-1.363-45.625.088-9.9.531-18.733,1.355-27.019.069-.689.126-1.448.186-2.252.255-3.389.571-7.6,2.084-10.6a272.509,272.509,0,0,0-18.786-42.314,172.33,172.33,0,0,1-35.3-13.362c-.487-.249-.98-.5-1.456-.735a42.484,42.484,0,0,1-6.6-3.82A13.731,13.731,0,0,1,3.1,429.865a36.6,36.6,0,0,1-3.075-15.5c.471-11.089,2.166-22.4,3.806-33.345.395-2.634.8-5.357,1.185-8.022,2.028-14.14,4.411-28.334,7.081-42.189,7.825-40.593,17.413-83.651,34.444-123.515,17.486-40.923,43.3-72.635,76.714-94.257,19.09-12.352,41.027-22.687,65.2-30.718a387.631,387.631,0,0,1,70.387-15.989c.935-.126,1.876-.273,2.785-.416a47.018,47.018,0,0,1,7.173-.752,16.813,16.813,0,0,1,5.686.908c.3.107.619.226.924.341a11.135,11.135,0,0,0,3.776.953h.047a26.8,26.8,0,0,0,4.618-.613c.986-.188,2.005-.383,2.97-.5,5.2-.607,10.5-.955,15.624-1.291l.066,0c1.454-.1,2.958-.194,4.436-.3.819-.057,1.665-.107,2.484-.156h.019c4.723-.28,9.607-.57,13.966-2.3,9-3.582,14.531-29.664,17.188-42.2.578-2.727,1.034-4.88,1.353-5.975.154-.526.309-1.088.46-1.631,1.162-4.186,2.608-9.4,6.151-11.6A5.816,5.816,0,0,1,351.6,0a5.612,5.612,0,0,1,4.24,1.741c1.394,1.613,2.068,3.878,2.06,6.922a48.184,48.184,0,0,1-.992,8.121c-.253,1.4-.491,2.721-.633,3.91-.048.4-.1.962-.168,1.611-.266,2.674-.761,7.65-1.887,13.492a91.992,91.992,0,0,1-5.713,19.126c-3.182,7.332-7.247,13.221-12.081,17.5A34.158,34.158,0,0,1,327.2,78.3a35.99,35.99,0,0,1-11.768,2.75c-11.5.773-19.714,1.653-25.112,2.691-4.423.85-6.952,1.8-7.958,2.983a2.866,2.866,0,0,0-.518,2.393c.024.252.049.511.049.763,3.986,7.1,10.805,17.969,16.9,25.252a207.286,207.286,0,0,0,25.048,25.241,165.5,165.5,0,0,0,23.378,16.479,168.371,168.371,0,0,0,25.885,12.261,165.086,165.086,0,0,0,27.583,7.647,157,157,0,0,0,28.473,2.637c.809,0,1.629-.007,2.438-.02,11.259-.181,20.777-1.748,29.1-4.792a58.876,58.876,0,0,0,12.827-6.519,56.448,56.448,0,0,0,11.21-10.065c5.376-6.294,10.22-15.132,14.81-27.018,3.95-10.23,7.007-20.848,9.7-30.217q.449-1.559.882-3.057c-12.945-16.135-18.4-37.637-13.569-53.5,1.4-4.6,3.443-6.932,6.072-6.932a6.682,6.682,0,0,1,3.408,1.116c3.168,1.924,3.886,8.922,4.463,14.546a45.563,45.563,0,0,0,.758,5.516c2.167,8.67,6.724,13.793,12.493,20.279.528.593,1.126,1.266,1.726,1.946.4-.032.8-.048,1.19-.048a15.421,15.421,0,0,1,11.12,4.921c18.058,4.422,31.49,8.62,43.552,13.611A150.456,150.456,0,0,1,620.5,122.238a199.677,199.677,0,0,1,25.985,26.321c6.827,8.2,13.862,17.635,22.137,29.7,11.875,17.317,23.542,35.212,34.824,52.518l.036.055c4.164,6.388,8.471,12.993,12.725,19.473q4.686,7.138,9.371,14.277l.463.706c14.255,21.721,28.994,44.181,43.612,66.279,4.422,6.686,8.85,13.365,13.163,19.85,2.041,3.069,4.2,6.312,6.6,9.912.5.746,1.034,1.486,1.6,2.27l.009.013c1.681,2.319,3.419,4.718,4.183,7.341.735,2.526.194,5.247-.241,7.434-.1.5-.2,1.024-.28,1.494a29.893,29.893,0,0,1-2.553,8.914,35.318,35.318,0,0,1-7.57,10.131,142.647,142.647,0,0,1,6.069,16.168,169.282,169.282,0,0,1,4.224,16.756,225.807,225.807,0,0,1,3.986,34.331c.841,21.925-.417,40.987-3.847,58.273a98.886,98.886,0,0,1-6.7,21.455,71.627,71.627,0,0,1-12.2,18.8,68.8,68.8,0,0,1-14.391,11.919,84.839,84.839,0,0,1-16.888,8.052c-12.314,4.329-26.206,6.433-42.472,6.433-7.03,0-14.556-.389-23.007-1.19.339,1.449.639,2.9.929,4.3l.013.062c.119.575.242,1.17.363,1.742.541,2.545,1.1,13.5,1.752,26.175v.009c.963,18.77,2.161,42.13,3.863,49.83.284,1.285.53,2.656.79,4.108.832,4.636,1.774,9.89,4.267,13.412a23.016,23.016,0,0,1,3.455,6.952,16.279,16.279,0,0,1,.313,7.726,25.851,25.851,0,0,1-6.3,12.036c-.663.658-1.078,1.138-1.38,1.487-.835.965-.835.965-2.88,1.09-1.607.1-4.591.281-10.33,1.1-15.468,2.21-33.792,4.291-54.461,6.187-20.967,1.923-43.885,3.611-68.117,5.017-51.766,3.005-107.375,4.594-160.817,4.594h0ZM192.572,393.567a286.2,286.2,0,0,0-41.647,3.129c-12.845,1.9-26.223,4.592-40.9,8.24-11.883,2.954-24.654,6.538-40.19,11.279.465,1.713,1.018,3.736,1.6,5.744,1.254,4.363,2.585,8.726,3.956,12.968,2.975,9.195,6.3,18.321,9.885,27.125a351.358,351.358,0,0,0,25.8,50.906A347.872,347.872,0,0,0,139.316,553.1a231.8,231.8,0,0,0,16.673,18.2,177.781,177.781,0,0,0,18.541,15.844,67.06,67.06,0,0,0,18.755,9.774,66.092,66.092,0,0,0,20.761,3.285h.007c.982,0,1.987-.021,2.987-.063,15.259-.638,30.352-4.66,44.949-8.549l.02-.005c2.161-.576,4.4-1.171,6.586-1.744,35.285-9.219,70.547-20.167,104.807-32.539,14.9-5.38,30.564-11.425,50.79-19.6,9.148-3.7,17.478-7.182,25.468-10.652,2.45-1.064,4.935-2.245,7.339-3.387,1.543-.733,3.139-1.492,4.738-2.224-7.729-4.647-15.464-9.553-22.945-14.3l-.026-.017c-7.245-4.595-14.736-9.345-22.212-13.855-9.222-5.563-17.473-10.1-25.225-13.868a190.042,190.042,0,0,0-26.685-10.728,228.493,228.493,0,0,0-30.031-7.154,239.778,239.778,0,0,0-30.713-3.117c-4.161-.155-8.4-.166-12.505-.177-5.837-.016-11.871-.031-17.766-.46a38.562,38.562,0,0,1-11.976-2.583,25.069,25.069,0,0,1-5.257-2.915,22.579,22.579,0,0,1-4.468-4.323c-4.4-5.624-6.481-12.851-8.491-19.84-.434-1.508-.882-3.067-1.341-4.557-2.722-8.835-5.359-17.8-7.8-26.177-.784-.138-1.575-.3-2.34-.457l-.013,0c-.858-.176-1.746-.358-2.6-.5-3.851-.643-7.825-1.178-11.811-1.592-7.152-.742-14.589-1.159-22.106-1.24C194.486,393.573,193.528,393.567,192.572,393.567Zm105.713,40.279h0a253.373,253.373,0,0,1,59.963,7.308A228.474,228.474,0,0,1,389.614,451.3a253.328,253.328,0,0,1,29.676,14.366c10.647,6.024,21.113,12.737,31.234,19.228l.013.009.006,0c7.773,4.985,15.81,10.14,23.876,14.949a445.141,445.141,0,0,0,122.444,49.992c10.717,2.62,22.051,5.031,33.689,7.168,10.844,1.991,22.29,3.8,34.023,5.391a266.513,266.513,0,0,0,35.935,2.782c4.515,0,8.926-.17,13.111-.507a92.475,92.475,0,0,0,21.182-3.988,51.43,51.43,0,0,0,18.7-10.4c6.421-5.8,10.974-13.461,13.92-23.428,2.69-9.1,3.661-18.945,4.257-27.377a297.457,297.457,0,0,0,.493-32.614,177.649,177.649,0,0,0-4.236-32.3A133.014,133.014,0,0,0,757.4,405.624c-.74-1.5-1.647-3.1-2.607-4.795l-.006-.01c-2.406-4.241-5.133-9.047-5.9-13.706-2.07-.109-4.179-.165-6.269-.165a126.171,126.171,0,0,0-24.547,2.469,150.852,150.852,0,0,0-23.673,6.847l.439.027.133.008c1.946.119,3.958.241,5.936.372,6.148.407,11.21.88,15.929,1.488.831.107,1.692.192,2.6.282l.027,0c3.579.354,7.635.756,10.579,2.629a9.689,9.689,0,0,1,4.446,7.344,11.841,11.841,0,0,1-.616,5.116,11.6,11.6,0,0,1-2.8,4.433,12.131,12.131,0,0,1-5.429,2.928,25.932,25.932,0,0,1-6.748.763,85.03,85.03,0,0,1-9.707-.746c-1.372-.16-2.668-.311-3.843-.411-46.121-3.935-81.332-7.644-114.17-12.026-39.324-5.249-78.835-12.049-115.673-18.616-18.5-3.3-38.33-6.714-58-9.367a577.47,577.47,0,0,0-58.5-5.178c-4.424-.144-8.817-.217-13.056-.217-7.717,0-15.289.243-22.506.721-7.665.508-15.2,1.3-22.387,2.354-14.674,2.152-28.908,6.308-42.673,10.328l-.033.01c-2.96.864-6.022,1.758-9.05,2.622,1.352,3.225,2.7,6.492,4.01,9.652,3.095,7.484,6.295,15.222,9.648,22.743.3.668.6,1.432.91,2.242,1.287,3.308,2.887,7.424,6.028,8.654a12.934,12.934,0,0,0,4.719.735,50.487,50.487,0,0,0,6.149-.515c1.346-.168,2.615-.326,3.755-.393C289.055,433.981,293.686,433.846,298.285,433.846Zm315.933-65.317a31.2,31.2,0,0,0-12.24,2.956,114,114,0,0,0-11.508,6.045c-.981.565-1.906,1.1-2.824,1.615-2.527,1.444-5.213,3.082-8.454,5.153,20.956,2.872,42.426,5.458,63.815,7.682-5.872-9.176-12.272-16.094-19.025-20.559a17.293,17.293,0,0,0-4.794-2.219A18.123,18.123,0,0,0,614.217,368.529Z" transform="translate(42 -2)"></path></g><g transform="translate(225 0)"><g><g><path id="_Skin" data-name="âœ‹ Skin" d="M340.529,155c-2.153-18.915.633-58.451.82-60.853,1.18-15.185-5.935-75.148-19.385-69.623C299.4,6.666,269.351,2.722,241.251.838,182.883-3.076,120.791,5.909,75.72,45.189c-22.289,20.4-43.988,50.068-42.244,80.96C13.226,155.431-15.324,195.6,9.908,229.831c8.577,10.937,22.208,15.01,32.982,23.293,21.672,17.48,35.268,42.566,57.145,59.942,57.96,52.083,156.377,62.963,213.323,3.723,44.035-42.9,36.915-107.09,29.169-161.786C337.321,118.23,344.728,191.9,340.529,155Z" transform="translate(65.001 149)" fill="#d08b5b"></path><path id="_Ink" data-name="ðŸ– Ink" d="M250.311,443.271a134.042,134.042,0,0,1-19.031-1.4,105.442,105.442,0,0,1-21.491-5.2,40.754,40.754,0,0,1-10.072-5.32,45.226,45.226,0,0,1-8.2-7.871,6.294,6.294,0,0,1-.675-6.317,3.866,3.866,0,0,1,3.632-2.362,5.178,5.178,0,0,1,.623.039,118.17,118.17,0,0,1,21.024,4.124l1,.317a104.128,104.128,0,0,0,21.541,4.62c3.694.358,7.44.539,11.135.539a110.436,110.436,0,0,0,33.375-5.089,96.9,96.9,0,0,0,16.843-7.179,103.553,103.553,0,0,0,15.255-10.132,108.268,108.268,0,0,0,24.252-27.3c7.019-11.267,11.672-24.011,14.225-38.96,2.453-14.362,2.683-29.15,2.584-41.72-.228-29.893-1.2-61.166-2.89-92.951l-.28-5.159c-.715-13.089-1.64-30.351-2.449-47.81-.269-5.848-.654-10.624-1.211-15.03a39.576,39.576,0,0,1-14.309-13.79,141.029,141.029,0,0,1-20.441,6.43,122.385,122.385,0,0,1-29.191,3.585,115.192,115.192,0,0,1-17.182-1.283c-4.14,1.71-8.423,3.236-12.73,4.536-1.2.53-2.372,1.042-3.5,1.523a212.419,212.419,0,0,1-31.93,10.98l-2.7.673a110.358,110.358,0,0,1-18.2,3.267,26.538,26.538,0,0,1-3.291,1.01,53.5,53.5,0,0,1-12.614,1.5c-1.507,0-3.032-.064-4.535-.189a8.47,8.47,0,0,1-6.809-4.393,6.954,6.954,0,0,1-.8-3.361,7.468,7.468,0,0,1,1.063-3.656c2.223-3.814,4.515-7.7,6.81-11.55a214.565,214.565,0,0,1-24.5,8.419c-7.393,2.082-15.461,4.046-25.391,6.18-2.254.481-4.55.941-6.77,1.387l-.008,0-.008,0c-2.255.453-4.587.921-6.873,1.409-.724.154-1.531.291-2.386.436-3.024.512-6.445,1.092-8.505,2.754-2.272,1.824-3.263,5.465-4.138,8.678-.248.912-.483,1.774-.732,2.532-1.555,4.676-2.889,9.014-4.08,13.26A275.4,275.4,0,0,0,89.65,200.5a259.542,259.542,0,0,0-3.231,27.6c-.243,3.81-.343,7.693-.44,11.448-.138,5.351-.281,10.884-.839,16.292a6.422,6.422,0,0,1-1.929,4.023,5.5,5.5,0,0,1-3.775,1.528,5.9,5.9,0,0,1-3.916-1.571c-.437-.385-.9-.8-1.364-1.213l-.676-.617a68.99,68.99,0,0,1-9.169-9.76c-.47-.646-.931-1.335-1.371-2.05a.328.328,0,0,1-.2-.069l-.734-.553c-7.713-5.742-14.351-8.653-19.73-8.653a11.913,11.913,0,0,0-9.756,4.785c-2.571,3.258-3.86,7.467-4.867,11.156l-1.874,7a121.649,121.649,0,0,0-3.02,13.849,53.032,53.032,0,0,0-.04,16.26,29.684,29.684,0,0,0,6.5,14.7,18.387,18.387,0,0,0,11.279,6.39,14.147,14.147,0,0,0,1.947.126,34.415,34.415,0,0,0,4.475-.394l.027,0q.456-.06.913-.119a15,15,0,0,1,1.871-.106c.661,0,1.33.031,1.976.061h.005c.651.03,1.324.061,1.991.061.562,0,1.064-.022,1.537-.067.153-.015.305-.023.453-.023a3.964,3.964,0,0,1,3.448,1.984,5.721,5.721,0,0,1,.308,5.369,18.167,18.167,0,0,1-2.81,4.15,32.426,32.426,0,0,1,2.471,2.38,12.33,12.33,0,0,1,6.009,4.49,10.188,10.188,0,0,1,2.04,5.56c.127.446.245.923.37,1.5l2.146,3.481c.526.852.988,1.59,1.414,2.258A108.707,108.707,0,0,0,90.14,364.5c2.683,2.443,5.5,4.83,8.219,7.139a183.861,183.861,0,0,1,13.711,12.452l.8.841a52.5,52.5,0,0,1,8.591,11.12c2.445,4.623,3.088,9.006,1.966,13.4a4.689,4.689,0,0,1-4.367,3.27,3.4,3.4,0,0,1-2.043-.66c-4.383-3.253-7.526-7.73-10.565-12.06a76.126,76.126,0,0,0-6.675-8.6c-3.244-3.446-6.722-6.77-10.086-9.984l0,0c-3.272-3.126-6.655-6.359-9.821-9.7A78.044,78.044,0,0,1,65.4,350.085a11.648,11.648,0,0,1-8.016,3.277,10.979,10.979,0,0,1-6.052-1.861,12.382,12.382,0,0,1-4.223-4.766,37.879,37.879,0,0,1-4.271,1.62,8.617,8.617,0,0,1-2.517.393,7.433,7.433,0,0,1-6.3-3.59,9.713,9.713,0,0,1-1.478-4.405,9.444,9.444,0,0,1,.8-4.738,30.273,30.273,0,0,1,5.809-8.68,36.826,36.826,0,0,1-19.821-9.63,40.67,40.67,0,0,1-11.188-21.54,60.016,60.016,0,0,1-1.1-12.283A77.3,77.3,0,0,1,8.19,271.595a121.654,121.654,0,0,1,7.25-25.11c.627-1.532,1.231-2.9,1.849-4.171a1.3,1.3,0,0,1-.99-.48c-.755-1.031-1.576-2.011-2.37-2.958a28.945,28.945,0,0,1-4.17-5.911c-.332-.682-.678-1.378-1.013-2.051a76.048,76.048,0,0,1-3.366-7.419c-2.615-7.059-3.752-14.963-4.45-21.06a158.58,158.58,0,0,1,1.18-42.75,170.791,170.791,0,0,1,9.426-35.324A173.628,173.628,0,0,1,28.118,91.949a11.606,11.606,0,0,1-2.06-1.38l-.319-.278-.518-.468a8.553,8.553,0,0,1-2.716-6.22,9.838,9.838,0,0,1,2.716-7.1l1.093-1.1a28.988,28.988,0,0,1,4.812-3.961c.323-.217.662-.426,1.008-.623a9.567,9.567,0,0,1-.76-7.479,9.927,9.927,0,0,1,5-6.127,17.589,17.589,0,0,1,8.3-1.832,29.707,29.707,0,0,1,12.379,2.823A160.043,160.043,0,0,1,89.509,35.715,310.548,310.548,0,0,1,133.8,17.02a382.367,382.367,0,0,1,46.481-12.4A211.134,211.134,0,0,1,222.145,0c1.919,0,3.842.035,5.715.1l1.229.048a140.719,140.719,0,0,1,19.4,1.822c7.586,1.375,13.556,3.564,18.249,6.693a2.286,2.286,0,0,1,1.6-.688,1.954,1.954,0,0,1,.849.193c11.52,5.5,24.119,9.59,36.3,13.548l2.9.942A177.356,177.356,0,0,0,348.6,30.835a8.341,8.341,0,0,1,3.992,1.438,8.081,8.081,0,0,1,2.732,3.1,6.289,6.289,0,0,1-.441,6.414c-.8,1.227-1.569,2.449-2.279,3.586l1.134-.119h.006c.861-.091,1.752-.185,2.627-.273.18-.018.364-.027.547-.027a7.369,7.369,0,0,1,5.222,2.5A7.73,7.73,0,0,1,364.386,53a74.571,74.571,0,0,1-.83,7.5h.03l.258,0a11.147,11.147,0,0,1,4.363.845c3.408,1.44,5.489,4.14,6.361,8.256.731,3.449.494,7.342.19,11.035-.869,10.526-4.908,20.378-11.082,27.031a42.951,42.951,0,0,1,6.4,8.552,46.562,46.562,0,0,1,4.236,10.179,48.059,48.059,0,0,1,1.96,16.681l-.134,1.673c-.546,6.379-1.641,12.871-5.917,17.147a9.3,9.3,0,0,1-6.693,2.856c-.31,0-.626-.016-.937-.046,1.6,14.077,2.642,28.492,3.57,42.05l.451,6.7c1.244,18.817,2.078,34.286,2.625,48.682.67,17.642.9,33.579.7,48.722a208.31,208.31,0,0,1-1.452,22.5,155.263,155.263,0,0,1-4.208,21.8,124.627,124.627,0,0,1-7.62,20.734,111.491,111.491,0,0,1-11.689,19.3,125.614,125.614,0,0,1-14.016,15.635,123.478,123.478,0,0,1-16.39,13.019,119.108,119.108,0,0,1-18.372,9.994A114.071,114.071,0,0,1,276.23,440.4,116.407,116.407,0,0,1,250.311,443.271ZM63,290.8l-.165,0a10.766,10.766,0,0,1-6.9-2.776,34.718,34.718,0,0,1-5-5.842c-.505-.685-1.027-1.392-1.553-2.072a6.867,6.867,0,0,1-1.67,2.04l-.46.36a8.407,8.407,0,0,1-5.027,2.036c-.092,0-.184,0-.273-.006a9.849,9.849,0,0,1-4.12-1.111,7.465,7.465,0,0,1-3.4-3.97,8.549,8.549,0,0,1,3.056-10.16l-.6-.413a12.088,12.088,0,0,1-3.389-3.245l-.207-.331h.08a3.241,3.241,0,0,1,1.861-4.78,9.719,9.719,0,0,1,3.016-.448c4.238,0,8.953,2.193,12.743,3.954.38.177.772.359,1.152.533,6.036,2.77,11.242,6.957,15.97,11.07,2.147,1.874,3,5.1,2.28,8.63l-.036.178c-.048.242-.1.491-.155.742a6.838,6.838,0,0,1-2.672,3.981A7.7,7.7,0,0,1,63,290.8Z" transform="translate(48 65.001)"></path></g></g><g transform="translate(159 186)"><g><path d="M64.6851 0.328928L65.3343 0.227903C70.2426 -0.481436 73.5798 0.335303 76.7711 4.52993C78.2921 6.52893 77.8231 9.54793 76.7711 11.5909C74.2481 16.4921 68.445 17.0017 63.0464 17.4758C61.1741 17.6402 59.3504 17.8003 57.7291 18.1379C51.5821 19.4169 45.4501 21.1579 39.6981 23.6919C33.8291 26.2779 28.3201 29.3369 22.9481 32.8299C18.0891 35.9909 13.6821 40.7419 8.13109 42.5809C7.88109 42.6639 7.58009 42.4399 7.59576 42.1749C7.99109 35.8619 13.2641 30.0669 17.3481 25.5709C22.0721 20.3719 27.8171 15.7559 33.8001 12.0859C39.9741 8.29993 46.6481 5.18293 53.5581 3.00893C57.1971 1.86393 60.9201 0.953928 64.6851 0.328928ZM170.069 4.01173C161.004 1.59673 145.641 -0.136272 139.461 8.90073C139.244 9.21773 139.459 9.71373 139.825 9.79573C149.132 11.8917 158.055 13.8077 166.861 17.7407C174.372 21.0969 180.475 25.6524 186.638 30.686L188.009 31.8121L190.151 33.5887C198.179 40.2677 208.86 29.9557 201.721 22.0187C193.751 13.1587 181.435 7.03773 170.069 4.01173ZM94.9638 47.2562C83.9368 39.2272 70.1108 35.2152 56.5218 35.3312C53.6798 35.3562 50.9168 35.5612 48.2258 35.9382C30.3678 34.0672 12.4588 49.6552 5.38279 65.6392C-3.78121 86.3422 -3.01521 118.73 21.7288 127.705C26.927 129.59 32.4683 130.427 37.9527 131.134L41.9353 131.637C49.3585 132.546 56.8901 133.208 64.3668 133.141C78.7508 133.014 90.1908 127.501 98.9448 116.067C106.744 105.882 113.776 92.9482 113.786 79.7932C113.796 66.2822 105.514 54.9392 94.9638 47.2562ZM212.162 100.318C208.623 111.012 200.906 119.247 190.156 122.867C179.502 126.456 167.653 125.148 156.762 123.208C154.38 122.783 151.965 122.315 149.555 121.768C151.527 122.99 153.27 124.71 154.937 126.528C157.403 129.217 159.639 132.05 160.317 135.416C160.99 138.755 159.93 141.295 157.996 143.213C155.021 146.162 150.222 147.751 146.158 148.629C137.056 150.596 127.939 150.29 118.882 148.273C116.57 147.759 115.001 146.519 114.121 144.901C113.052 142.937 112.964 140.494 113.578 138.268C114.191 136.044 115.516 133.994 117.439 132.859C119.022 131.925 121.002 131.669 123.249 132.416C127.759 133.917 132.237 134.911 137.001 135.026C139.017 135.073 141.047 135.013 143.061 134.828C144.199 134.724 145.335 134.579 146.465 134.398C145.799 133.512 145.153 132.609 144.522 131.698C143.775 130.621 143.049 129.529 142.355 128.419C140.349 125.206 138.678 121.904 137.21 118.418C136.739 117.301 136.303 116.179 135.884 115.054C135.823 114.892 135.763 114.729 135.703 114.567C135.574 114.458 135.445 114.349 135.318 114.239C132.447 111.755 130.04 108.695 128.337 104.905C123.727 94.6395 124.478 81.8966 127.275 71.2371C129.517 62.6929 134.465 54.7901 141.002 49.4212C142.143 47.5432 142.897 46.404 143.82 45.4446C147.577 41.5358 152.82 38.8996 157.936 37.296C169.362 33.7129 181.807 36.2836 191.493 43.1058C200.436 49.4048 207.437 58.8518 211.221 69.3589C214.804 79.3093 215.503 90.2234 212.162 100.318ZM79.4728 50.5622C62.4558 42.9242 41.7798 45.2112 25.2728 53.3622C18.7338 60.4962 13.9548 69.4872 12.0208 77.7412C9.95579 86.5522 10.2578 96.0432 13.3628 104.583C17.1538 115.008 26.4888 117.59 36.5588 119.192L40.4684 119.806L42.1086 120.055C52.0033 121.531 62.8209 122.679 72.3298 120.831C82.9272 118.77 89.6574 110.209 94.9545 101.432L95.2018 101.02C100.703 91.8232 105.308 80.6382 100.694 70.1002C96.7708 61.1432 88.2018 54.4802 79.4728 50.5622ZM161.106 51.5656C167.412 49.3996 174.073 49.9876 179.913 53.2236C192.592 60.2486 199.794 75.7386 198.323 89.9676C197.701 95.9906 195.301 102.091 190.213 105.685C184.371 109.811 176.733 109.976 169.763 109.492L168.408 109.389L163.311 108.964C156.698 108.384 149.291 107.384 144.398 103.218C139.035 98.6491 137.846 90.3099 137.72 83.4933L137.71 82.7138L137.708 81.9496C137.724 76.1826 138.535 70.3246 140.5 64.9076C142.186 65.1176 144.037 64.4856 145.095 62.9056L145.366 62.5171C147.463 59.6191 150.074 58.5323 152.869 56.3866L153.776 55.7006C156.049 54.0076 158.393 52.4974 161.106 51.5656ZM52.795 54.5381C62.166 49.7541 73.423 50.9531 81.361 56.9491C80.656 57.0871 79.962 57.2631 79.27 57.6101C77.469 58.5131 76.351 60.3211 75.925 62.2451C75.445 64.4201 76.572 66.4791 78.719 67.1651C80.587 67.7611 82.802 68.0341 84.537 66.8991C85.446 66.3051 86.081 65.5221 86.498 64.5361L86.557 64.3911L86.6303 64.2847L86.6581 64.2349C86.6645 64.216 86.6317 64.252 86.58 64.3331C86.633 64.2101 86.682 64.0871 86.731 63.9621C86.804 63.8131 86.874 63.6631 86.931 63.5081C87.032 63.4211 87.124 63.3241 87.217 63.2271C88.659 65.4461 89.791 67.9521 90.51 70.7401C95.124 88.6351 76.204 107.206 59.301 109.064C52.913 109.766 47.088 108.245 42.254 105.247C42.298 105.188 42.347 105.135 42.387 105.073C44.329 105.422 46.647 104.553 47.352 102.387C49.151 96.8621 47.306 90.3991 41.286 88.5941C37.412 87.4321 33.448 88.7161 30.679 91.3641C28.585 86.2391 27.836 80.4691 28.827 74.6901C30.225 66.5371 35.143 59.1901 42.797 55.7981C46.524 54.1451 49.736 53.7981 52.795 54.5381ZM151.767 65.1295L151.482 65.5789C147.663 71.7409 146.72 79.1059 148.675 85.5869C148.683 85.7066 148.695 85.8259 148.708 85.9451L148.797 86.6589C151.32 86.0129 154.008 86.5199 155.814 88.7309C156.539 88.7329 157.255 88.8919 157.833 89.2289L158.028 89.3502C159.797 90.517 160.098 92.6435 159.353 94.5037L159.274 94.688L159.288 94.662C159.347 94.5497 159.125 95.1893 159.1 95.2589L158.955 95.638C158.856 95.8895 158.751 96.1386 158.643 96.3859C158.211 97.3689 157.626 98.1629 156.915 98.9679C156.645 99.2739 156.332 99.5049 155.997 99.6829C160.161 102.975 165.591 104.581 171.021 104.026C176.886 103.427 181.769 100.467 184.937 96.1059C185.268 95.8159 185.603 95.5319 185.918 95.2179C193.721 87.4219 194.64 73.3679 187.989 64.6219C187.584 64.0909 187.159 63.6229 186.721 63.2029C186.535 63.8789 186.198 64.5359 185.715 64.9839C184.827 65.8099 183.745 66.3509 182.516 66.3729C181.678 66.3899 180.823 66.1669 180.096 65.7429C179.036 65.1239 178.253 64.1009 177.704 63.0219C177.198 62.0259 177.054 61.0239 177.301 59.9399C177.309 59.9069 177.319 59.8751 177.331 59.8439L177.405 59.6569C174.695 57.9899 171.395 57.2739 168.243 57.7019C167.531 57.2609 166.741 56.9209 165.935 56.7099C160.198 55.2069 154.663 60.6733 151.767 65.1295ZM59.1248 152.988C58.8718 152.829 58.5398 152.897 58.3298 153.091C56.4748 154.804 56.4508 157.175 55.7878 159.532C54.8718 162.79 53.8158 166.052 52.6748 169.237C50.4508 175.45 47.8918 181.968 43.8078 187.222L43.6421 187.44C40.1686 192.126 40.6221 198.728 46.5918 201.243C51.6778 203.387 56.7898 200.384 58.2048 195.53L58.2658 195.638C60.8528 189.485 62.9938 183.084 63.7368 176.457C64.4278 176.821 65.1148 177.18 65.7738 177.534L66.8531 178.109C70.8192 180.202 74.8814 182.115 79.0788 183.694C89.0058 187.428 99.2578 190.003 109.725 191.68C119.407 193.23 129.169 194.127 138.969 193.31C148.557 192.51 159.889 190.647 168.195 185.48C177.871 179.458 169.445 165.735 159.391 170.418C155.375 172.288 151.936 174.423 147.618 175.711C143.965 176.8 140.207 177.616 136.427 178.105C127.624 179.242 118.54 178.995 109.712 178.319C100.616 177.622 91.5228 176.23 82.5968 174.349L79.9264 173.798C76.3634 173.076 72.7932 172.39 69.2428 171.605C67.5708 171.235 65.8028 170.705 64.0128 170.239C63.9638 164.925 63.4518 155.724 59.1248 152.988Z" transform="translate(36.00021 35.99987)" fill-rule="evenodd" stroke="none"></path></g></g><g transform="translate(123 338)"></g><g transform="translate(47 241)"><g><path d="M355.09 63.4319C352.262 71.1279 347.958 79.1399 342.695 85.6169C321.401 103.649 300.71 93.6649 290.204 69.2259C286.212 51.9549 296.811 33.3509 308.042 20.6459C324.262 4.38889 350.733 12.9209 358.191 32.2469C358.644 34.7509 358.918 37.2489 359.049 39.7389C358.894 47.8299 357.919 54.7449 355.09 62.4319M150.41 47.9109C178.462 14.5439 230.942 12.7599 229.603 64.1149C223.577 129.119 122.106 113.164 150.41 47.9109ZM363.913 20.0759C362.93 18.4109 361.839 16.7999 360.648 15.2589C360.208 14.9969 359.955 12.6729 358.337 12.5009C336.71 -11.3581 298.717 2.17889 284.989 25.9529C282.482 28.9589 280.437 32.4779 278.929 36.1959C265.403 33.7149 249.634 34.1969 237.054 39.3059C224.58 6.73389 186.815 3.82589 161.928 17.7429C146.449 25.3559 136.412 41.2989 121.358 50.0569C85.9688 52.6039 47.9878 44.6749 13.2378 53.5519C-14.1682 59.2499 8.74178 73.1269 13.3378 63.8659C46.1008 54.1859 84.9158 62.3659 118.933 60.1849C122.47 66.1679 129.253 71.0639 136.013 70.8549C143.314 135.576 237.698 124.844 240.954 67.3109C244.647 61.4719 249.24 55.8839 255.814 52.2459C258.331 51.7249 260.762 51.0479 262.984 49.9999C266.782 49.4639 272.634 51.0739 276.128 54.2359C288.097 126.052 357.052 117.688 369.375 54.7739C369.62 54.5239 370.305 53.5859 370.831 52.0809C375.049 46.5039 385.375 44.4309 383.725 35.0159C382.256 25.5989 370.364 25.7109 363.913 20.0759Z" transform="translate(11.99972 10.99992)" stroke="none"></path></g></g></g></g></svg>